# xmcd
#
# Track frame offsets:
#	150
#	14713
#	28644
#	39361
#	52010
#	63267
#	76158
#	86836
#	103280
#	118408
#	128826
#	140845
#	154820
#
# Disc length: 2257 seconds
#
# Revision: 1
# Processed by: cddbd v1.5.2PL0 Copyright (c) Steve Scherf et al.
# Submitted via: audiograbber 1.83.01
#
DISCID=b908cf0d
DTITLE=Cina Samuelson - Roots and Memories
DYEAR=2014
DGENRE=
TTITLE0=Ain´t Had No Loving
TTITLE1=Everybody´s Had The Blues
TTITLE2=Take Me with Dale Watson
TTITLE3=I´ll Give My Heart To You
TTITLE4=There´s More To Leaving Than Just Saying Goodbye
TTITLE5=Love Is No Excuse with Justin Trevino
TTITLE6=Honky Tonk Merry Go Round
TTITLE7=Please Help Me I´m Falling
TTITLE8=Mommy, Can I Still Call Him Daddy
TTITLE9=Treat Me Mean Treat Me Cruel
TTITLE10=Are You Sure with Bobby Flores
TTITLE11=What A Man My Man Is
TTITLE12=You Took Him Off My Hands
EXTD=
EXTT0=
EXTT1=
EXTT2=
EXTT3=
EXTT4=
EXTT5=
EXTT6=
EXTT7=
EXTT8=
EXTT9=
EXTT10=
EXTT11=
EXTT12=
PLAYORDER=
